<svg xmlns="http://www.w3.org/2000/svg" width="1440" height="760" viewBox="0 0 1440 760"><rect width="1440" height="760" fill="#111311"/><g fill="#ecebe6"><text x="96" y="86" font-family="monospace" font-size="13" letter-spacing="3" fill="#f07a58">RSS / LIVE BRIEF</text><text x="96" y="178" font-family="Georgia,serif" font-size="112" font-weight="bold">Signal</text><text x="1130" y="168" font-family="monospace" font-size="13">12 STORIES · LIVE</text></g><path d="M96 216H1344" stroke="#30322e"/><g font-family="monospace" font-size="12"><text x="96" y="266" fill="#ecebe6">ALL SOURCES</text><text x="240" y="266" fill="#92938e">HACKER NEWS</text><text x="385" y="266" fill="#92938e">BBC NEWS</text><text x="1110" y="266" fill="#92938e">⌕  FILTER STORIES</text></g><path d="M96 298H1344" stroke="#30322e"/><g font-family="monospace" font-size="12" fill="#92938e"><text x="96" y="345">01</text><circle cx="190" cy="341" r="4" fill="#ff7a45"/><text x="210" y="345">HACKER NEWS</text><text x="390" y="345" fill="#ecebe6" font-family="Georgia,serif" font-size="19">A clear, balanced view of the latest signal</text><text x="1170" y="345">10:42 AM</text><text x="1320" y="345" font-size="18">↗</text></g><path d="M96 374H1344" stroke="#30322e"/><g font-family="monospace" font-size="12" fill="#92938e"><text x="96" y="421">02</text><circle cx="190" cy="417" r="4" fill="#b2182b"/><text x="210" y="421">BBC NEWS</text><text x="390" y="421" fill="#ecebe6" font-family="Georgia,serif" font-size="19">Stories stay compact, readable, and easy to scan</text><text x="1170" y="421">10:31 AM</text><text x="1320" y="421" font-size="18">↗</text></g><path d="M96 450H1344" stroke="#30322e"/><g font-family="monospace" font-size="12" fill="#92938e"><text x="96" y="497">03</text><circle cx="190" cy="493" r="4" fill="#ff7a45"/><text x="210" y="497">HACKER NEWS</text><text x="390" y="497" fill="#ecebe6" font-family="Georgia,serif" font-size="19">A minimal local reading desk for your workflow</text><text x="1170" y="497">10:08 AM</text><text x="1320" y="497" font-size="18">↗</text></g><path d="M96 526H1344" stroke="#30322e"/><text x="96" y="622" font-family="monospace" font-size="12" fill="#92938e">SYSTEM THEME · PARALLEL FETCH · NEWEST FIRST</text></svg>
